<svg width="20" height="18" viewBox="0 0 20 18" fill="none" xmlns="http://www.w3.org/2000/svg">
<path d="M9.99856 0C10.5532 0 11.065 0.292969 11.3462 0.773438L19.7837 15.1484C20.0689 15.6328 20.0689 16.2305 19.7915 16.7148C19.5142 17.1992 18.9947 17.5 18.4361 17.5H1.56106C1.00246 17.5 0.482933 17.1992 0.205589 16.7148C-0.0717543 16.2305 -0.067848 15.6289 0.213402 15.1484L8.6509 0.773438C8.93215 0.292969 9.44387 0 9.99856 0ZM9.99856 5C9.47903 5 9.06106 5.41797 9.06106 5.9375V10.3125C9.06106 10.832 9.47903 11.25 9.99856 11.25C10.5181 11.25 10.9361 10.832 10.9361 10.3125V5.9375C10.9361 5.41797 10.5181 5 9.99856 5ZM11.2486 13.75C11.2486 13.4185 11.1169 13.1005 10.8824 12.8661C10.648 12.6317 10.3301 12.5 9.99856 12.5C9.66704 12.5 9.3491 12.6317 9.11467 12.8661C8.88025 13.1005 8.74856 13.4185 8.74856 13.75C8.74856 14.0815 8.88025 14.3995 9.11467 14.6339C9.3491 14.8683 9.66704 15 9.99856 15C10.3301 15 10.648 14.8683 10.8824 14.6339C11.1169 14.3995 11.2486 14.0815 11.2486 13.75Z" fill="#F59E0B"/>
</svg>
